 <!DOCTYPE svg PUBLIC "-//W3C//DTD SVG 1.1//EN" "http://www.w3.org/Graphics/SVG/1.1/DTD/svg11.dtd">
<svg id="b0a24f82-e0e9-4877-9558-21bbfcd0eed7" data-name="Layer 1" xmlns="http://www.w3.org/2000/svg" width="865.76" height="682.89" viewBox="0 0 865.76 682.89">
<defs>
<style xmlns="http://www.w3.org/1999/xhtml">*, ::after, ::before { box-sizing: border-box; }
img, svg { vertical-align: middle; }
</style>
<style xmlns="http://www.w3.org/1999/xhtml">*, body, html { -webkit-font-smoothing: antialiased; }
img, svg { max-width: 100%; }
</style>
</defs>
<polygon points="170.78 625.33 176.46 619.56 324.14 619.56 310.22 637.13 249.28 652.16 170.78 625.33" fill="#2f2e41" data-secondary="true"/>
<polygon points="170.78 625.33 176.46 619.56 324.14 619.56 310.22 637.13 249.28 652.16 170.78 625.33" opacity="0.2"/>
<path d="M400.16,590.35a23,23,0,0,0-7.64-1.21c-9.34,0-37.94,2-65.39,23.62-33.41,26.34-77.85,34.94-77.85,34.94s55.55,15.85,91.79,0c0,0,70.54-20.2,68.6-42.42C409.67,605.28,412,594.54,400.16,590.35Z" fill="#2f2e41" data-secondary="true"/>
<path d="M270.53,652.16s3.3,15.92-3.42,20.75c0,0-83.09,2.53-116.53-15.29a20.4,20.4,0,0,1-9.81-11.22c-2-5.68-1.74-13.5,8-21.07,0,0,12.83-8.63,29.38-.57a126.73,126.73,0,0,0,18.07,7.31C216.86,638.41,257.67,650.65,270.53,652.16Z" fill="#2f2e41" data-secondary="true"/>
<path d="M173,615.21c1.06-11.3,3.44-32.05,7.75-46.81,0,0,4.43-30.57-4.21-43.86,0,0-12.18,21.26-9.53,26.13,0,0-13.29,4.44-13.73,20.83,0,0-19-2.66-13.73-28.8l20.7-74.87s9.87-23,29.36-30.13c0,0-.44-6.2,21.26-13.73,0,0,33.23-2.66,58.48,20.38a84.44,84.44,0,0,1,18.17,31.45l22.66,66.47-27.67.33-5.62-14.52L276,620.67l-95.6,2.45A7.23,7.23,0,0,1,173,615.21Z" fill="#f2a600" data-primary="true"/>
<path d="M576.35,456.48l20.71-145.79s31.81,13.74,93,5.91l2.25,170.8S702.93,540.06,701,628c0,0,6.75,4.35.23,16.91,0,0-35.5,9.67-46.61-5.31,0,0-.49-12.56,9.18-15.46,0,0-14.5-7.73-2.9-19.81l-12.08-99.52s-10.15-23.68-10.63-81.17L621,474.76a13.16,13.16,0,0,0-.68,4.07c0,13.89-1,95.06-15.94,159.78,0,0-34.3.49-43.48-8.69a81,81,0,0,1,11.6-34.79s-3.4-41.19,2.15-62.66a25.17,25.17,0,0,0,.74-8.77C574,509.16,570.34,465.69,576.35,456.48Z" fill="#2f2e41" data-secondary="true"/>
<path d="M620.48,121.51l11.59,17.71s16.85-7.4,18.57-22.86c0,0-3.93-3.92-4-14.24l-8-10.24S636.31,117.71,620.48,121.51Z" fill="#f9b499"/>
<path d="M574.74,181.09c0-.23.07-.46.11-.69a39.5,39.5,0,0,1,22.21-29.49c8.8-4.11,19.53-10.35,19.53-10.35,4.84-.19,10-.6,15.48-1.34a166.83,166.83,0,0,0,29.63-6.76l30.6,17.39h0C715.49,164,713.56,252.6,713.56,252.6c-.32,15.46-23.51,11.91-23.51,11.91v40.26c-38.65,16.75-89.54,0-89.54,0-8-1.93-4.41-23.58-3.23-29.66a9.2,9.2,0,0,0,.07-3.14c-1.39-9.53-1.68-29.36-1.68-29.36-17.08,26.74-40.58,18-40.58,18-17.39-5.48-5.47-33.5-5.47-33.5s-4.79,17.8,8,19.41a13.61,13.61,0,0,0,11.3-4.08l7.7-7.76,15.88,1.41" fill="#f2a600" data-primary="true"/>
<path d="M674.26,141.48s-16.42,7.73-17.71,33.17l-4.19,137.54,5.83-.25,3.51-135.35s1-26.79,19.81-33.05l-5.7-3Z" fill="#fff"/>
<polygon points="597.06 150.91 600.51 304.77 607.36 306.71 605.5 146.68 597.06 150.91" fill="#fff"/>
<g opacity="0.2">
<path d="M674.91,226.48c-9.61-38.11,12.41-70.47,12.63-70.79l.82.57c-.22.32-22,32.32-12.49,70Z"/>
</g>
<path d="M620.48,148.26,626.6,156s-10.79,112.57-6.12,134.79l6.12,10.63,11.84-13L633.36,156l5.08-3.46-6.05-11.35S624.55,143.33,620.48,148.26Z" fill="#fff"/>
<path d="M690.05,304.77V316.6s-55.86,9.18-93-5.91v-9S641.41,323.13,690.05,304.77Z" fill="#2f2e41" data-secondary="true"/>
<path d="M690.05,304.77V316.6s-55.86,9.18-93-5.91v-9S641.41,323.13,690.05,304.77Z" opacity="0.2"/>
<path d="M604.37,663.25V638.61s-25.72.33-40.47-6.47l-11.66,10.37a23.36,23.36,0,0,1-13.63,5.82L521,649.77a6.76,6.76,0,0,0-6.28,6.73h0a6.75,6.75,0,0,0,6.75,6.75Z" fill="#f2a600" data-primary="true"/>
<path d="M654.62,639.58l-10.83,5.52A26.12,26.12,0,0,1,631.9,648H619.26a7.64,7.64,0,0,0-7.64,7.65h0a7.64,7.64,0,0,0,7.64,7.64h82.22V644.89S666.69,654.56,654.62,639.58Z" fill="#f2a600" data-primary="true"/>
<polygon points="559.73 208.97 552.08 170.96 579.35 173.03 595.57 236.13 565.22 234.72 559.73 208.97" fill="#2f2e41" data-secondary="true"/>
<path d="M205.6,446.56s16.39,80.19,7.53,147.09h6.64l16.84-50.51h31.45s-.44-71.32-20.37-103.66C247.69,439.48,246.8,463,205.6,446.56Z" fill="#fff"/>
<path d="M279.14,472.26l-12.65,42.07s-4.18-68.92-29.66-87.39c0,0,29.91,6.78,36.55,29.37l-13.29,1.33Z" fill="#f2a600" data-primary="true"/>
<path d="M214.56,516.56,181.23,472.7l22.15-16.83H188.32s-5.07-23.31,15-28.93C203.28,426.94,213.4,488.65,214.56,516.56Z" fill="#f2a600" data-primary="true"/>
<path d="M279.14,472.26l-12.65,42.07s-4.18-68.92-29.66-87.39c0,0,29.91,6.78,36.55,29.37l-13.29,1.33Z" opacity="0.2"/>
<path d="M214.56,516.56,181.23,472.7l22.15-16.83H188.32s-5.07-23.31,15-28.93C203.28,426.94,213.4,488.65,214.56,516.56Z" opacity="0.2"/>
<ellipse cx="243.08" cy="378.12" rx="28.52" ry="41.87" fill="#f9b499"/>
<circle cx="216.34" cy="393.51" r="5.43" fill="#f9b499"/>
<path d="M236.83,416.88v10.06s6.35,3.66,10.86,12.54c0,0,.88,16.52-25.92,12,0,0-14.89-1.46-15.83-7.58l-2.66-17,7.63-3,3.65-30.46Z" fill="#f9b499"/>
<path d="M212.53,612.76l-41.1-28.1s-5-12.21,12.65-19l29,27.95h6.64Z" fill="#f9b499"/>
<polygon points="349.23 541.81 236.61 543.14 210.08 622.36 324.14 622.36 349.23 541.81" fill="#d1d3d4"/>
<rect x="210.08" y="622.36" width="114.06" height="5.92" fill="#bcbec0"/>
<polygon points="184.08 623.03 184.08 628.29 210.08 628.29 210.08 622.36 184.08 623.03" fill="#d1d3d4"/>
<path d="M293.24,673s-9.66-10.77,0-18.49l-22.71-2.39s2.82,16.89-3.42,20.75Z" fill="#f9b499"/>
<path d="M341.07,647.7s3.86,21.11-6.76,25.34H293.24s-10.15-9.8,0-18.49C293.24,654.55,324.16,656.78,341.07,647.7Z" fill="#f2a600" data-primary="true"/>
<path d="M347.32,645.77s11.14,27.27-13,27.27c0,0,10-2.43,6.76-25.34Z" fill="#2f2e41" data-secondary="true"/>
<path d="M205.6,415.28s-4-10.67,10.74-27.2c0,0,10-8.74,14.79-33.89,0,0,16.42-6.72,24.68-13.54,0,0,10.65,5.34,15.21,29,0,0,13.82-22.55-13-33.36,0,0-35.72-18.59-52.9,9.75,0,0-6.86,11.09-3.64,32.12,0,0-14.18,4.6-7.09,25.86,0,0,1-10,5.15-10.47C199.51,393.51,195.58,412.73,205.6,415.28Z" fill="#2f2e41" data-secondary="true"/>
<circle cx="214.85" cy="330.17" r="15.82" fill="#2f2e41" data-secondary="true"/>
<path d="M230.36,327c-15.51-.18-19.45,11.67-19.45,11.67s5.19-6.62,19.76-8.51Z" fill="#f2a600" data-primary="true"/>
<path d="M269.62,393.51s10,10.14-1.56,31.72l-3.81-10L258,426.94l-1.76-11.66S265.61,409.13,269.62,393.51Z" fill="#2f2e41" data-secondary="true"/>
<path d="M476.9,305.1H294.44a7.5,7.5,0,0,0-7.5,7.5V402l12.17-14H476.9a7.5,7.5,0,0,0,7.5-7.5v-68A7.5,7.5,0,0,0,476.9,305.1Z" fill="#d1d3d4"/>
<rect x="309.71" y="348.9" width="99.48" height="8.37" rx="3.71" opacity="0.2"/>
<rect x="350.29" y="330.26" width="83.38" height="8.37" rx="3.71" opacity="0.2"/>
<rect x="308.6" y="330.26" width="29.08" height="8.37" rx="3.71" opacity="0.2"/>
<path d="M470.9,187.54H300.44a13.49,13.49,0,0,0-13.5,13.5v60a13.5,13.5,0,0,0,13.5,13.5H467L484.4,288V201A13.49,13.49,0,0,0,470.9,187.54Z" fill="#2f2e41" data-secondary="true"/>
<rect x="308.6" y="212.66" width="73.53" height="10.47" rx="4.64" opacity="0.2"/>
<rect x="360.14" y="234.24" width="80.94" height="10.47" rx="4.64" opacity="0.2"/>
<rect x="390.41" y="212.66" width="39.39" height="10.47" rx="4.64" opacity="0.2"/>
<rect x="308.6" y="234.24" width="41.69" height="10.47" rx="4.64" opacity="0.2"/>
<path d="M473.47,9.1H300.3A10.94,10.94,0,0,0,289.37,20V167.59a10.93,10.93,0,0,0,10.93,10.93h13.08l13.2,15.59,13.8-15.59H473.47a10.93,10.93,0,0,0,10.93-10.93V20A10.93,10.93,0,0,0,473.47,9.1Z" fill="#d1d3d4"/>
<rect x="331.41" y="119.74" width="98.4" height="41.39" rx="6.86" opacity="0.2"/>
<rect x="308.6" y="46.88" width="54.21" height="4.25" rx="1.89" opacity="0.2"/>
<rect x="308.6" y="66.21" width="54.21" height="4.25" rx="1.89" opacity="0.2"/>
<rect x="308.6" y="81.13" width="29.08" height="4.25" rx="1.89" opacity="0.2"/>
<rect x="402.81" y="66.21" width="26.99" height="4.25" rx="1.89" opacity="0.2"/>
<rect x="402.81" y="81.13" width="26.99" height="4.25" rx="1.89" opacity="0.2"/>
<rect x="440.01" y="81.13" width="22.64" height="4.25" rx="1.89" opacity="0.2"/>
<rect x="440.01" y="66.21" width="16.68" height="4.25" rx="1.89" opacity="0.2"/>
<rect x="345.59" y="81.13" width="23.5" height="4.25" rx="1.89" opacity="0.2"/>
<rect x="308.6" y="96.12" width="34.58" height="4.25" rx="1.89" opacity="0.2"/>
<path d="M640.12,234.72s20.92,21,46.54,28.84a29,29,0,0,0,8.11,1.29c6.11.1,16.23-1,18.4-9.29h0a20,20,0,0,0-11.48-18.81c-10-4.68-27.38-10.93-56.2-16.28" fill="#f2a600" data-primary="true"/>
<path d="M610.89,206.94l-19.14-6.73a3.13,3.13,0,0,1-2-3.87h0a3.12,3.12,0,0,1,3.6-2.17c9.15,1.84,38.39,8.9,52.1,26.3,0,0,0,15.46-9,15.46,0,0-35.73,2.66-34.29-11.6C602.21,224.33,603.71,212.26,610.89,206.94Z" fill="#f9b499"/>
<path d="M615.17,155s.54-22.78,7.16-30.66l9.74,14.87s16.52-6.76,18.57-22.86c0,0,11.06,11,11.06,16.1,0,0-7.73,21.58-18.68,28.67l-10.63-20S623.4,142.12,615.17,155Z" fill="#f2a600" data-primary="true"/>
<path d="M615.17,155s.54-22.78,7.16-30.66l9.74,14.87s16.52-6.76,18.57-22.86c0,0,11.06,11,11.06,16.1,0,0-7.73,21.58-18.68,28.67l-10.63-20S623.4,142.12,615.17,155Z" fill="#fff" opacity="0.2"/>
<path d="M556.76,211.88a18.61,18.61,0,0,0-4.7,7.64l-2.44,7.63s-4.51,16.33,5.71,18.9c0,0,7.74,2.31,13.62-3.62l4.4-4.62A33.88,33.88,0,0,0,582,221.32l1.82-8.81a10.6,10.6,0,0,0-4.13-10.72h0a10.61,10.61,0,0,0-13.67,1Z" fill="#f9b499"/>
<path d="M167.05,550.67s7.89-4.64,17,15c0,0-16.16,5.23-12.65,19,0,0-10.23,0-18.11-13.16A22.21,22.21,0,0,1,167.05,550.67Z" fill="#f2a600" data-primary="true"/>
<path d="M167.05,550.67s7.89-4.64,17,15c0,0-16.16,5.23-12.65,19,0,0-10.23,0-18.11-13.16A22.21,22.21,0,0,1,167.05,550.67Z" opacity="0.2"/>
<path d="M625.84,129.5l-3.51-5.15s10.09-3.68,14.78-19.95C637.11,104.4,637.77,120.46,625.84,129.5Z" fill="#f4a48e"/>
<ellipse cx="612.53" cy="86.95" rx="27.31" ry="40.07" fill="#f9b499"/>
<ellipse cx="641.63" cy="85.38" rx="6.27" ry="10.74" fill="#f9b499"/>
<path d="M580.3,59.86s7.61-8.5,11.64-9v9.74s4.92-6.61,9.4-7c0,0-3.73,8.16-1.56,9.85,0,0,7-8.45,10.15-8.21l-1.45,6s28.5-22.71,42-15.94c0,0,3.32-19.74-23.72-21a58.08,58.08,0,0,0-21.37,3.06C593.68,31.4,576.28,40.65,580.3,59.86Z" fill="#2f2e41" data-secondary="true"/>
<path d="M624.34,50.82s3.73,25.11,12.53,27.57c0,0,3.46-6.69,8.07-2.12,0,0,5.1,4.6,1.71,15.52,0,0-2.06,4.88-5.56,4.33l4,8.28S658.64,90,650.51,45.34C650.51,45.34,642.06,40.35,624.34,50.82Z" fill="#2f2e41" data-secondary="true"/>
</svg>